<svg width="32" height="28" viewBox="0 0 32 28" fill="none" xmlns="http://www.w3.org/2000/svg">
<path d="M26.5001 17.5571V19.4743C26.5001 19.5834 26.4109 19.6726 26.3018 19.6726H20.5433C20.4906 19.6726 20.44 19.6517 20.4027 19.6143L17.2633 16.4749C17.226 16.4376 17.2051 16.387 17.2051 16.3343V8.52645C17.2051 8.41737 17.2943 8.32812 17.4034 8.32812H19.3206C19.4297 8.32812 19.5189 8.41739 19.5189 8.52649V17.3588H26.3017C26.4108 17.3588 26.5001 17.448 26.5001 17.5571Z" fill="#6945F7"/>
<path d="M14.7934 8.52546V15.3925C14.7934 15.5014 14.7051 15.5898 14.5961 15.5898H13.1386C12.9717 15.5898 12.8117 15.5233 12.694 15.405L10.7958 13.497C10.7088 13.4096 10.7707 13.2606 10.894 13.2606H12.4642V10.6358H7.81766V19.4834C7.81766 19.5924 7.72931 19.6808 7.62032 19.6808H5.69734C5.58835 19.6808 5.5 19.5924 5.5 19.4834V8.52546C5.5 8.41108 5.59272 8.31836 5.70711 8.31836H14.5863C14.7007 8.31836 14.7934 8.41108 14.7934 8.52546Z" fill="#6945F7"/>
</svg>
